<svg id="content.01" xmlns="http://www.w3.org/2000/svg" xmlns:xlink="http://www.w3.org/1999/xlink" viewBox="0 0 228.33 35"><defs><style>.cls-1{fill:url(#linear-gradient);}.cls-2{fill:#eda33a;}.cls-3{fill:#ec8a00;}.cls-4{fill:#fff;}</style><linearGradient id="linear-gradient" x1="114.17" y1="34.33" x2="114.17" y2="0.67" gradientUnits="userSpaceOnUse"><stop offset="0" stop-color="#ec8a00"/><stop offset="0.13" stop-color="#f09914"/><stop offset="0.35" stop-color="#f7ae31"/><stop offset="0.57" stop-color="#fbbd45"/><stop offset="0.79" stop-color="#fec652"/><stop offset="1" stop-color="#ffc956"/></linearGradient></defs><title>demobutton</title><rect class="cls-1" x="0.67" y="0.67" width="227" height="33.67" rx="3.95" ry="3.95"/><path class="cls-2" d="M1203.6,356.36a3.29,3.29,0,0,1,3.28,3.28v25.77a3.29,3.29,0,0,1-3.28,3.28H984.5a3.29,3.29,0,0,1-3.28-3.28V359.64a3.29,3.29,0,0,1,3.28-3.28h219.1m0-1.33H984.5a4.62,4.62,0,0,0-4.62,4.62v25.77A4.62,4.62,0,0,0,984.5,390h219.1a4.62,4.62,0,0,0,4.62-4.62V359.64a4.62,4.62,0,0,0-4.62-4.62h0Z" transform="translate(-979.89 -355.02)"/><path class="cls-3" d="M1036.07,379.32h-2.49V367.4h4.61c1.7,0,2.79,1.09,2.79,3.12,0,1.52-.59,2.66-2.21,2.92v0a2.12,2.12,0,0,1,2.16,2.34,16.34,16.34,0,0,0,.28,3.5h-2.44a5.49,5.49,0,0,1-.26-2.31c0-1.42.13-2.63-1.78-2.63h-0.64v4.94Zm0-6.77h1.11a1.48,1.48,0,0,0,1.27-1.75c0-1.14-.48-1.57-1.27-1.57h-1.11v3.32Z" transform="translate(-979.89 -355.02)"/><path class="cls-3" d="M1042.81,379.32V367.4h6.5v1.83h-4v2.94h3.7V374h-3.7v3.48h4.14v1.83h-6.64Z" transform="translate(-979.89 -355.02)"/><path class="cls-3" d="M1060,379.32h-3.52c-0.21,0-.46,0-0.71,0a5.71,5.71,0,0,1-.73.07c-3.68,0-4.14-1.93-4.14-6.08,0-3.15,0-6.16,4.11-6.16s4.11,3,4.11,6.16c0,2.56-.46,3.68-1.45,4.51l0,0a10,10,0,0,1,1.25-.41h1v1.83Zm-3.4-6c0-3.05-.18-4.38-1.58-4.38s-1.59,1.32-1.59,4.38,0.18,4.29,1.59,4.29S1056.64,376.34,1056.64,373.36Z" transform="translate(-979.89 -355.02)"/><path class="cls-3" d="M1069.2,367.4v8.45c0,1.78-1,3.67-4,3.67-2.74,0-4.06-1.42-4.06-3.67V367.4h2.49v8.29c0,1.47.63,2,1.54,2,1.09,0,1.59-.73,1.59-2V367.4h2.49Z" transform="translate(-979.89 -355.02)"/><path class="cls-3" d="M1071.23,379.32V367.4h6.51v1.83h-4v2.94h3.7V374h-3.7v3.48h4.14v1.83h-6.64Z" transform="translate(-979.89 -355.02)"/><path class="cls-3" d="M1082.72,379.52c-3.09,0-3.67-1.82-3.53-3.88h2.49c0,1.14.05,2.1,1.42,2.1a1.19,1.19,0,0,0,1.25-1.35c0-2.15-5-2.28-5-5.83,0-1.87.89-3.35,3.93-3.35,2.43,0,3.63,1.09,3.47,3.58h-2.43c0-.89-0.15-1.8-1.16-1.8a1.16,1.16,0,0,0-1.29,1.27c0,2.26,5,2.06,5,5.81C1086.88,379.16,1084.62,379.52,1082.72,379.52Z" transform="translate(-979.89 -355.02)"/><path class="cls-3" d="M1095.76,367.4v2H1093v9.94h-2.49v-9.94h-2.77v-2h8Z" transform="translate(-979.89 -355.02)"/><path class="cls-3" d="M1099.67,379.32l3.3-11.92h3.28l3.24,11.92h-2.62l-0.66-2.64h-3.4l-0.68,2.64h-2.46Zm4.8-9.63h0l-1.14,5.15h2.38Z" transform="translate(-979.89 -355.02)"/><path class="cls-3" d="M1114.38,367.4h4.16c3.27,0,3.88,2.18,3.88,5.89,0,1.83.28,6-4,6h-4.06V367.4Zm2.49,10.09h1.21c1.52,0,1.82-1.14,1.82-4.13,0-2.2,0-4.13-1.73-4.13h-1.29v8.26Z" transform="translate(-979.89 -355.02)"/><path class="cls-3" d="M1124.42,379.32V367.4h6.5v1.83h-4v2.94h3.7V374h-3.7v3.48h4.14v1.83h-6.64Z" transform="translate(-979.89 -355.02)"/><path class="cls-3" d="M1132.62,379.32V367.4h4l1.87,8.11h0l2-8.11h3.88v11.92H1142v-9.2h0l-2.29,9.2h-2.38l-2.18-9.2h0v9.2h-2.43Z" transform="translate(-979.89 -355.02)"/><path class="cls-3" d="M1146.3,373.36c0-3.15,0-6.16,4.11-6.16s4.11,3,4.11,6.16,0,6.16-4.11,6.16S1146.3,376.48,1146.3,373.36Zm5.7,0c0-3.05-.18-4.38-1.59-4.38s-1.59,1.32-1.59,4.38,0.18,4.38,1.59,4.38S1152,376.42,1152,373.36Z" transform="translate(-979.89 -355.02)"/><path class="cls-4" d="M1036.07,377.64h-2.49V365.72h4.61c1.7,0,2.79,1.09,2.79,3.12,0,1.52-.59,2.66-2.21,2.92v0a2.12,2.12,0,0,1,2.16,2.34,16.33,16.33,0,0,0,.28,3.5h-2.44a5.48,5.48,0,0,1-.26-2.31c0-1.42.13-2.63-1.78-2.63h-0.64v4.94Zm0-6.77h1.11a1.48,1.48,0,0,0,1.27-1.75c0-1.14-.48-1.57-1.27-1.57h-1.11v3.32Z" transform="translate(-979.89 -355.02)"/><path class="cls-4" d="M1042.81,377.64V365.72h6.5v1.83h-4v2.94h3.7v1.83h-3.7v3.48h4.14v1.83h-6.64Z" transform="translate(-979.89 -355.02)"/><path class="cls-4" d="M1060,377.64h-3.52c-0.21,0-.46,0-0.71,0a5.7,5.7,0,0,1-.73.07c-3.68,0-4.14-1.93-4.14-6.08,0-3.15,0-6.16,4.11-6.16s4.11,3,4.11,6.16c0,2.56-.46,3.68-1.45,4.51l0,0a10,10,0,0,1,1.25-.41h1v1.83Zm-3.4-6c0-3.05-.18-4.38-1.58-4.38s-1.59,1.32-1.59,4.38,0.18,4.29,1.59,4.29S1056.64,374.65,1056.64,371.68Z" transform="translate(-979.89 -355.02)"/><path class="cls-4" d="M1069.2,365.72v8.45c0,1.78-1,3.67-4,3.67-2.74,0-4.06-1.42-4.06-3.67v-8.45h2.49V374c0,1.47.63,2,1.54,2,1.09,0,1.59-.73,1.59-2v-8.29h2.49Z" transform="translate(-979.89 -355.02)"/><path class="cls-4" d="M1071.23,377.64V365.72h6.51v1.83h-4v2.94h3.7v1.83h-3.7v3.48h4.14v1.83h-6.64Z" transform="translate(-979.89 -355.02)"/><path class="cls-4" d="M1082.72,377.84c-3.09,0-3.67-1.82-3.53-3.88h2.49c0,1.14.05,2.1,1.42,2.1a1.19,1.19,0,0,0,1.25-1.35c0-2.15-5-2.28-5-5.83,0-1.87.89-3.35,3.93-3.35,2.43,0,3.63,1.09,3.47,3.58h-2.43c0-.89-0.15-1.8-1.16-1.8a1.16,1.16,0,0,0-1.29,1.27c0,2.26,5,2.06,5,5.81C1086.88,377.48,1084.62,377.84,1082.72,377.84Z" transform="translate(-979.89 -355.02)"/><path class="cls-4" d="M1095.76,365.72v2H1093v9.94h-2.49V367.7h-2.77v-2h8Z" transform="translate(-979.89 -355.02)"/><path class="cls-4" d="M1099.67,377.64l3.3-11.92h3.28l3.24,11.92h-2.62l-0.66-2.64h-3.4l-0.68,2.64h-2.46Zm4.8-9.63h0l-1.14,5.15h2.38Z" transform="translate(-979.89 -355.02)"/><path class="cls-4" d="M1114.38,365.72h4.16c3.27,0,3.88,2.18,3.88,5.89,0,1.83.28,6-4,6h-4.06V365.72Zm2.49,10.09h1.21c1.52,0,1.82-1.14,1.82-4.13,0-2.2,0-4.13-1.73-4.13h-1.29v8.26Z" transform="translate(-979.89 -355.02)"/><path class="cls-4" d="M1124.42,377.64V365.72h6.5v1.83h-4v2.94h3.7v1.83h-3.7v3.48h4.14v1.83h-6.64Z" transform="translate(-979.89 -355.02)"/><path class="cls-4" d="M1132.62,377.64V365.72h4l1.87,8.11h0l2-8.11h3.88v11.92H1142v-9.2h0l-2.29,9.2h-2.38l-2.18-9.2h0v9.2h-2.43Z" transform="translate(-979.89 -355.02)"/><path class="cls-4" d="M1146.3,371.68c0-3.15,0-6.16,4.11-6.16s4.11,3,4.11,6.16,0,6.16-4.11,6.16S1146.3,374.8,1146.3,371.68Zm5.7,0c0-3.05-.18-4.38-1.59-4.38s-1.59,1.32-1.59,4.38,0.18,4.38,1.59,4.38S1152,374.74,1152,371.68Z" transform="translate(-979.89 -355.02)"/></svg>